<svg xmlns="http://www.w3.org/2000/svg" xmlns:xlink="http://www.w3.org/1999/xlink" width="641" zoomAndPan="magnify" viewBox="0 0 480.75 480.749983" height="641" preserveAspectRatio="xMidYMid meet" version="1.0"><defs><clipPath id="707dd32eff"><path d="M 166.132812 166.875 L 314.554688 166.875 L 314.554688 313.796875 L 166.132812 313.796875 Z M 166.132812 166.875 " clip-rule="nonzero"/></clipPath></defs><path fill="#000000" d="M 277.5625 201.503906 C 277.828125 201.226562 278.121094 200.949219 278.179688 200.875 C 279.089844 199.753906 279.839844 198.488281 280.410156 197.160156 C 281.960938 193.535156 282.210938 189.832031 281.707031 185.953125 C 281.554688 184.785156 281.359375 183.621094 281.179688 182.457031 C 281.160156 182.316406 281.128906 181.484375 280.953125 181.425781 C 280.824219 181.386719 280.433594 182.480469 280.398438 182.570312 C 279.84375 183.921875 279.246094 185.269531 278.59375 186.582031 C 276.777344 190.226562 275.03125 194.03125 274.792969 198.164062 C 274.710938 199.566406 274.773438 201.503906 275.855469 202.613281 C 274.742188 209.921875 276.136719 217.167969 276.472656 224.5 C 276.324219 223.824219 276.160156 223.152344 275.972656 222.484375 C 274.324219 216.605469 271.136719 211.664062 266.582031 207.632812 C 265.597656 206.761719 264.59375 205.917969 263.566406 205.097656 C 263.449219 205.003906 262.746094 204.316406 262.589844 204.425781 C 262.355469 204.582031 262.703125 205.945312 262.738281 206.167969 C 263.027344 208.070312 263.382812 209.96875 263.675781 211.871094 C 264.621094 217.984375 267.839844 223.289062 272.023438 227.730469 C 273.070312 228.84375 274.734375 230.882812 276.363281 231.433594 C 275.78125 238.007812 273.777344 244.210938 270.773438 250.054688 C 270.96875 249.191406 271.144531 248.324219 271.304688 247.457031 C 271.984375 243.800781 272.714844 238.953125 271.292969 235.253906 C 271.519531 235.125 271.730469 234.949219 271.910156 234.734375 C 272.710938 233.765625 272.574219 232.335938 271.609375 231.535156 C 270.644531 230.738281 269.210938 230.875 268.410156 231.839844 C 267.613281 232.804688 267.746094 234.238281 268.714844 235.035156 C 269.035156 235.300781 269.40625 235.464844 269.792969 235.527344 C 271.289062 238.996094 270.488281 243.679688 269.839844 247.183594 C 269.753906 247.65625 269.660156 248.125 269.5625 248.59375 C 269.847656 243.898438 269.316406 239.027344 267.425781 234.703125 C 267.167969 234.113281 265.855469 230.570312 264.910156 230.59375 C 264.667969 230.601562 264.625 231.871094 264.601562 232.042969 C 264.359375 233.664062 263.945312 235.269531 263.511719 236.847656 C 262.019531 242.308594 262.078125 247.300781 264.167969 252.671875 C 264.769531 254.222656 266.054688 255.488281 266.683594 256.980469 C 264.90625 259.726562 263.070312 262.429688 261.28125 265.164062 C 261.269531 264.695312 261.25 264.226562 261.226562 263.757812 C 261.09375 260.949219 260.613281 258.207031 259.59375 255.582031 C 259.566406 255.519531 259.535156 255.460938 259.496094 255.410156 C 259.550781 255.355469 259.601562 255.300781 259.648438 255.242188 C 260.449219 254.277344 260.3125 252.84375 259.347656 252.046875 C 258.382812 251.246094 256.949219 251.382812 256.148438 252.347656 C 255.351562 253.3125 255.488281 254.746094 256.453125 255.542969 C 256.953125 255.957031 257.578125 256.121094 258.175781 256.046875 C 258.183594 256.074219 258.191406 256.097656 258.203125 256.121094 C 259.164062 258.597656 259.613281 261.179688 259.738281 263.828125 C 259.78125 264.75 259.8125 265.675781 259.828125 266.601562 C 259.828125 266.738281 259.75 266.929688 259.699219 267.109375 C 259.628906 267.359375 259.585938 267.59375 259.589844 267.773438 L 259.589844 267.796875 C 257.925781 270.4375 256.347656 273.132812 254.949219 275.949219 C 254.078125 277.710938 255.425781 278.34375 256.285156 276.613281 C 257.519531 274.128906 258.894531 271.738281 260.347656 269.398438 C 260.839844 269.179688 261.375 268.976562 261.421875 268.957031 C 263.675781 268.140625 266.15625 267.742188 268.53125 267.503906 C 274.109375 266.945312 278.460938 265.074219 281.667969 260.300781 C 282.160156 259.574219 284.167969 256.949219 283.835938 255.929688 C 283.8125 255.859375 282.542969 256.402344 282.449219 256.4375 C 280.851562 257.015625 279.269531 257.617188 277.695312 258.261719 C 274.09375 259.726562 270.605469 261.339844 267.101562 263.015625 C 265.695312 263.691406 264.355469 264.273438 263.136719 265.046875 C 265.238281 261.859375 267.394531 258.707031 269.414062 255.460938 C 271.617188 251.917969 273.480469 248.234375 274.902344 244.410156 C 275.34375 244.4375 276.089844 244.582031 276.386719 244.570312 C 277.792969 244.503906 279.179688 244.257812 280.535156 243.898438 C 286.296875 242.355469 291.148438 238.351562 294.421875 233.449219 C 295.488281 231.851562 296.492188 230.191406 297.3125 228.449219 C 297.421875 228.214844 298.058594 227.101562 297.746094 226.824219 C 297.59375 226.6875 296.507812 227.695312 296.375 227.792969 C 294.957031 228.835938 293.367188 229.589844 291.832031 230.445312 C 287 233.132812 282.050781 236.023438 277.910156 239.773438 C 278.394531 238.894531 278.882812 238.019531 279.394531 237.160156 C 281.714844 233.234375 284.128906 229.539062 287.710938 226.664062 C 287.71875 226.65625 287.730469 226.644531 287.742188 226.636719 C 288.695312 227.238281 289.96875 227.054688 290.707031 226.164062 C 291.503906 225.199219 291.367188 223.765625 290.402344 222.964844 C 289.4375 222.167969 288.003906 222.304688 287.207031 223.269531 C 286.679688 223.90625 286.558594 224.746094 286.8125 225.472656 C 286.800781 225.480469 286.789062 225.492188 286.773438 225.5 C 283.054688 228.488281 280.523438 232.320312 278.109375 236.402344 C 277.570312 237.308594 277.054688 238.234375 276.546875 239.160156 C 277.429688 235.691406 277.941406 232.117188 278.019531 228.433594 C 278.082031 225.546875 277.875 222.675781 277.625 219.816406 C 277.695312 219.636719 277.824219 219.1875 277.9375 219.023438 C 278.292969 218.476562 278.6875 217.945312 279.113281 217.445312 C 280.324219 216.03125 281.734375 214.800781 283.144531 213.589844 C 287.761719 209.617188 291.316406 205.828125 293.390625 199.941406 C 293.859375 198.613281 294.273438 197.246094 294.5 195.855469 C 294.527344 195.683594 294.789062 194.628906 294.617188 194.484375 C 294.542969 194.421875 293.324219 195.632812 293.238281 195.707031 C 291.746094 196.996094 290.164062 198.191406 288.605469 199.402344 C 285.015625 202.195312 282.847656 205.8125 280.617188 209.703125 C 279.988281 210.800781 279.390625 211.816406 278.847656 212.8125 C 279.0625 211.683594 279.308594 210.554688 279.613281 209.445312 C 280.871094 204.835938 282.59375 200.394531 285.203125 196.382812 C 286.035156 196.609375 286.960938 196.347656 287.546875 195.640625 C 288.347656 194.671875 288.210938 193.242188 287.246094 192.441406 C 286.277344 191.644531 284.847656 191.777344 284.046875 192.746094 C 283.367188 193.566406 283.363281 194.722656 283.96875 195.542969 C 281.269531 199.691406 279.476562 204.28125 278.171875 209.050781 C 277.726562 210.6875 277.398438 212.351562 277.121094 214.023438 C 276.8125 209.855469 276.730469 205.691406 277.5625 201.503906 Z M 277.5625 201.503906 " fill-opacity="1" fill-rule="evenodd"/><g clip-path="url(#707dd32eff)"><path fill="#000000" d="M 262.015625 273.210938 L 252.144531 269.609375 L 249.417969 276.378906 L 210.183594 188.113281 C 208.441406 184.191406 207.496094 181.066406 207.351562 178.742188 C 207.351562 175.398438 208.730469 173.292969 211.492188 172.421875 C 214.398438 171.695312 218.539062 171.332031 223.914062 171.332031 L 223.914062 166.972656 L 166.148438 166.972656 L 166.148438 171.332031 C 171.234375 171.332031 175.164062 172.492188 177.925781 174.820312 C 180.394531 177 182.714844 180.195312 184.894531 184.410156 L 243.101562 313.652344 L 245.929688 313.652344 Z M 285.921875 183.042969 L 296.351562 186.855469 C 298.796875 180.703125 301.324219 176.617188 303.914062 174.601562 C 306.820312 172.421875 310.378906 171.332031 314.59375 171.332031 L 314.59375 166.972656 L 269.910156 166.972656 L 269.910156 171.332031 C 280.664062 171.332031 286.039062 174.601562 286.039062 181.140625 C 286.039062 181.742188 286 182.378906 285.921875 183.042969 Z M 285.921875 183.042969 " fill-opacity="1" fill-rule="nonzero"/></g></svg>