<svg xmlns="http://www.w3.org/2000/svg" xmlns:xlink="http://www.w3.org/1999/xlink" width="641" zoomAndPan="magnify" viewBox="0 0 480.75 480.749983" height="641" preserveAspectRatio="xMidYMid meet" version="1.0"><defs><clipPath id="23f5bb3807"><path d="M 166.132812 166.875 L 314.554688 166.875 L 314.554688 313.796875 L 166.132812 313.796875 Z M 166.132812 166.875 " clip-rule="nonzero"/></clipPath></defs><path fill="#ffffff" d="M 277.410156 201.460938 C 277.675781 201.1875 277.972656 200.90625 278.03125 200.835938 C 278.9375 199.714844 279.6875 198.449219 280.253906 197.125 C 281.804688 193.503906 282.054688 189.804688 281.554688 185.929688 C 281.402344 184.761719 281.203125 183.601562 281.027344 182.4375 C 281.003906 182.296875 280.976562 181.46875 280.800781 181.410156 C 280.671875 181.367188 280.28125 182.464844 280.246094 182.550781 C 279.691406 183.902344 279.09375 185.25 278.441406 186.558594 C 276.628906 190.199219 274.886719 194 274.644531 198.125 C 274.566406 199.527344 274.625 201.460938 275.707031 202.570312 C 274.597656 209.871094 275.992188 217.109375 276.324219 224.429688 C 276.175781 223.753906 276.011719 223.085938 275.824219 222.417969 C 274.179688 216.542969 270.992188 211.609375 266.449219 207.582031 C 265.464844 206.710938 264.464844 205.871094 263.433594 205.054688 C 263.316406 204.960938 262.617188 204.273438 262.457031 204.378906 C 262.226562 204.539062 262.574219 205.898438 262.609375 206.121094 C 262.894531 208.023438 263.25 209.914062 263.546875 211.816406 C 264.488281 217.921875 267.707031 223.222656 271.878906 227.65625 C 272.925781 228.769531 274.589844 230.808594 276.214844 231.355469 C 275.632812 237.921875 273.632812 244.117188 270.632812 249.953125 C 270.828125 249.09375 271.003906 248.226562 271.164062 247.359375 C 271.84375 243.707031 272.574219 238.863281 271.152344 235.171875 C 271.378906 235.042969 271.589844 234.867188 271.769531 234.652344 C 272.566406 233.6875 272.429688 232.257812 271.46875 231.460938 C 270.503906 230.660156 269.070312 230.796875 268.273438 231.761719 C 267.476562 232.726562 267.609375 234.15625 268.574219 234.953125 C 268.898438 235.21875 269.269531 235.382812 269.652344 235.445312 C 271.148438 238.910156 270.347656 243.589844 269.699219 247.089844 C 269.613281 247.558594 269.519531 248.027344 269.425781 248.496094 C 269.710938 243.804688 269.179688 238.941406 267.289062 234.621094 C 267.03125 234.035156 265.722656 230.492188 264.777344 230.519531 C 264.535156 230.527344 264.492188 231.792969 264.46875 231.964844 C 264.226562 233.585938 263.8125 235.1875 263.382812 236.765625 C 261.890625 242.21875 261.949219 247.207031 264.035156 252.570312 C 264.636719 254.117188 265.921875 255.378906 266.546875 256.871094 C 264.773438 259.617188 262.9375 262.316406 261.15625 265.046875 C 261.140625 264.578125 261.121094 264.109375 261.101562 263.640625 C 260.96875 260.835938 260.488281 258.097656 259.464844 255.476562 C 259.441406 255.414062 259.410156 255.355469 259.371094 255.304688 C 259.425781 255.25 259.476562 255.195312 259.523438 255.136719 C 260.324219 254.171875 260.1875 252.742188 259.222656 251.945312 C 258.257812 251.144531 256.828125 251.28125 256.03125 252.246094 C 255.230469 253.210938 255.367188 254.640625 256.332031 255.4375 C 256.832031 255.851562 257.457031 256.015625 258.054688 255.941406 C 258.0625 255.964844 258.070312 255.992188 258.078125 256.015625 C 259.039062 258.488281 259.488281 261.066406 259.613281 263.710938 C 259.65625 264.632812 259.6875 265.558594 259.699219 266.480469 C 259.703125 266.617188 259.621094 266.808594 259.574219 266.988281 C 259.503906 267.238281 259.460938 267.476562 259.464844 267.652344 L 259.464844 267.675781 C 257.804688 270.316406 256.226562 273.007812 254.832031 275.820312 C 253.957031 277.578125 255.308594 278.210938 256.164062 276.480469 C 257.394531 274 258.769531 271.613281 260.21875 269.273438 C 260.710938 269.058594 261.246094 268.851562 261.292969 268.835938 C 263.542969 268.019531 266.023438 267.621094 268.394531 267.382812 C 273.964844 266.824219 278.308594 264.957031 281.515625 260.191406 C 282.003906 259.464844 284.007812 256.84375 283.679688 255.824219 C 283.65625 255.753906 282.386719 256.296875 282.292969 256.328125 C 280.699219 256.910156 279.117188 257.511719 277.546875 258.152344 C 273.949219 259.617188 270.464844 261.226562 266.964844 262.902344 C 265.558594 263.574219 264.222656 264.15625 263.007812 264.929688 C 265.105469 261.746094 267.257812 258.597656 269.273438 255.351562 C 271.476562 251.816406 273.335938 248.136719 274.753906 244.320312 C 275.199219 244.34375 275.945312 244.492188 276.238281 244.476562 C 277.640625 244.410156 279.027344 244.167969 280.382812 243.804688 C 286.132812 242.265625 290.980469 238.265625 294.25 233.367188 C 295.316406 231.773438 296.316406 230.113281 297.132812 228.378906 C 297.246094 228.140625 297.878906 227.027344 297.570312 226.753906 C 297.417969 226.617188 296.332031 227.621094 296.203125 227.71875 C 294.78125 228.761719 293.199219 229.515625 291.664062 230.367188 C 286.839844 233.050781 281.894531 235.941406 277.761719 239.683594 C 278.246094 238.808594 278.730469 237.9375 279.242188 237.074219 C 281.558594 233.152344 283.972656 229.464844 287.546875 226.59375 C 287.558594 226.582031 287.570312 226.574219 287.578125 226.5625 C 288.53125 227.167969 289.800781 226.980469 290.539062 226.09375 C 291.335938 225.128906 291.199219 223.699219 290.234375 222.898438 C 289.273438 222.101562 287.839844 222.238281 287.042969 223.203125 C 286.515625 223.835938 286.398438 224.675781 286.652344 225.402344 C 286.640625 225.410156 286.625 225.421875 286.613281 225.429688 C 282.898438 228.417969 280.367188 232.242188 277.957031 236.316406 C 277.421875 237.226562 276.90625 238.148438 276.398438 239.070312 C 277.28125 235.609375 277.792969 232.039062 277.871094 228.359375 C 277.929688 225.476562 277.726562 222.609375 277.472656 219.75 C 277.546875 219.574219 277.675781 219.125 277.785156 218.960938 C 278.144531 218.414062 278.535156 217.882812 278.960938 217.386719 C 280.171875 215.972656 281.582031 214.742188 282.988281 213.535156 C 287.597656 209.566406 291.148438 205.78125 293.222656 199.902344 C 293.6875 198.574219 294.101562 197.210938 294.328125 195.820312 C 294.355469 195.652344 294.617188 194.597656 294.445312 194.453125 C 294.371094 194.390625 293.152344 195.597656 293.066406 195.671875 C 291.574219 196.960938 289.996094 198.152344 288.441406 199.363281 C 284.855469 202.152344 282.691406 205.765625 280.464844 209.652344 C 279.835938 210.75 279.238281 211.761719 278.699219 212.757812 C 278.910156 211.628906 279.15625 210.503906 279.460938 209.394531 C 280.71875 204.789062 282.4375 200.355469 285.042969 196.347656 C 285.875 196.574219 286.800781 196.3125 287.382812 195.605469 C 288.183594 194.640625 288.046875 193.210938 287.082031 192.410156 C 286.117188 191.613281 284.6875 191.75 283.890625 192.714844 C 283.210938 193.53125 283.207031 194.6875 283.8125 195.507812 C 281.113281 199.652344 279.324219 204.238281 278.023438 209 C 277.578125 210.636719 277.25 212.296875 276.972656 213.96875 C 276.664062 209.804688 276.582031 205.644531 277.410156 201.460938 Z M 277.410156 201.460938 " fill-opacity="1" fill-rule="evenodd"/><g clip-path="url(#23f5bb3807)"><path fill="#ffffff" d="M 261.886719 273.082031 L 252.027344 269.484375 L 249.308594 276.25 L 210.125 188.089844 C 208.386719 184.171875 207.441406 181.050781 207.296875 178.726562 C 207.296875 175.390625 208.671875 173.285156 211.433594 172.414062 C 214.335938 171.6875 218.46875 171.328125 223.835938 171.328125 L 223.835938 166.972656 L 166.148438 166.972656 L 166.148438 171.328125 C 171.226562 171.328125 175.152344 172.488281 177.910156 174.808594 C 180.375 176.984375 182.695312 180.179688 184.871094 184.386719 L 242.996094 313.476562 L 245.824219 313.476562 Z M 285.761719 183.023438 L 296.179688 186.832031 C 298.621094 180.683594 301.144531 176.605469 303.730469 174.589844 C 306.632812 172.414062 310.183594 171.328125 314.394531 171.328125 L 314.394531 166.972656 L 269.769531 166.972656 L 269.769531 171.328125 C 280.511719 171.328125 285.875 174.589844 285.875 181.121094 C 285.875 181.726562 285.839844 182.359375 285.761719 183.023438 Z M 285.761719 183.023438 " fill-opacity="1" fill-rule="nonzero"/></g></svg>