<svg xmlns="http://www.w3.org/2000/svg" xmlns:xlink="http://www.w3.org/1999/xlink" width="641" zoomAndPan="magnify" viewBox="0 0 480.75 480.749983" height="641" preserveAspectRatio="xMidYMid meet" version="1.0"><defs><g/><clipPath id="2b4dcd4cc6"><path d="M 232.019531 200.667969 L 303.980469 200.667969 L 303.980469 271.878906 L 232.019531 271.878906 Z M 232.019531 200.667969 " clip-rule="nonzero"/></clipPath></defs><g fill="#ffffff" fill-opacity="1"><g transform="translate(77.198138, 266.737783)"><g><path d="M 7.4375 0 L 7.4375 -46.09375 L 0.671875 -46.09375 L 0.671875 -57.0625 L 25.640625 -57.0625 L 25.640625 -46.09375 L 18.859375 -46.09375 L 18.859375 0 Z M 7.4375 0 "/></g></g></g><g fill="#ffffff" fill-opacity="1"><g transform="translate(103.496797, 266.737783)"><g><path d="M 2.328125 -48.625 L 13.953125 -48.625 L 13.953125 -43.234375 C 14.523438 -45.140625 15.53125 -46.613281 16.96875 -47.65625 C 18.40625 -48.695312 20.1875 -49.21875 22.3125 -49.21875 L 22.3125 -39.515625 C 20.675781 -39.515625 18.875 -39.28125 16.90625 -38.8125 C 14.9375 -38.351562 13.953125 -37.816406 13.953125 -37.203125 L 13.953125 0 L 2.328125 0 Z M 2.328125 -48.625 "/></g></g></g><g fill="#ffffff" fill-opacity="1"><g transform="translate(126.342096, 266.737783)"><g><path d="M 11.15625 0.53125 C 7.394531 0.53125 4.816406 -0.71875 3.421875 -3.21875 C 2.023438 -5.71875 1.328125 -9.296875 1.328125 -13.953125 C 1.328125 -17.753906 1.820312 -20.671875 2.8125 -22.703125 C 3.8125 -24.742188 5.195312 -26.238281 6.96875 -27.1875 C 8.738281 -28.144531 11.441406 -29.203125 15.078125 -30.359375 L 18.265625 -31.421875 L 18.265625 -36.40625 C 18.265625 -37.6875 18.007812 -38.671875 17.5 -39.359375 C 16.988281 -40.046875 16.378906 -40.390625 15.671875 -40.390625 C 15.054688 -40.390625 14.515625 -40.097656 14.046875 -39.515625 C 13.578125 -38.941406 13.34375 -38.171875 13.34375 -37.203125 L 13.34375 -34.28125 L 2.0625 -34.28125 L 2.0625 -35.875 C 2.0625 -40.65625 3.175781 -44.0625 5.40625 -46.09375 C 7.644531 -48.132812 11.289062 -49.15625 16.34375 -49.15625 C 20.375 -49.15625 23.648438 -48.101562 26.171875 -46 C 28.691406 -43.894531 29.953125 -40.914062 29.953125 -37.0625 L 29.953125 0 L 18.40625 0 L 18.40625 -5.78125 C 17.820312 -3.789062 16.898438 -2.238281 15.640625 -1.125 C 14.378906 -0.0195312 12.882812 0.53125 11.15625 0.53125 Z M 15.734375 -8.5 C 16.628906 -8.5 17.265625 -8.863281 17.640625 -9.59375 C 18.015625 -10.320312 18.203125 -11.21875 18.203125 -12.28125 L 18.203125 -25.84375 C 16.472656 -25.175781 15.195312 -24.332031 14.375 -23.3125 C 13.5625 -22.289062 13.15625 -20.875 13.15625 -19.0625 L 13.15625 -12.8125 C 13.15625 -9.9375 14.015625 -8.5 15.734375 -8.5 Z M 15.734375 -8.5 "/></g></g></g><g fill="#ffffff" fill-opacity="1"><g transform="translate(158.418492, 266.737783)"><g><path d="M 16.9375 0.53125 C 11.625 0.53125 7.789062 -0.816406 5.4375 -3.515625 C 3.09375 -6.222656 1.921875 -10.363281 1.921875 -15.9375 L 1.921875 -30.953125 C 1.921875 -35.160156 2.375 -38.582031 3.28125 -41.21875 C 4.195312 -43.851562 5.726562 -45.832031 7.875 -47.15625 C 10.019531 -48.488281 13 -49.15625 16.8125 -49.15625 C 20.96875 -49.15625 24.351562 -48.066406 26.96875 -45.890625 C 29.582031 -43.722656 30.890625 -40.691406 30.890625 -36.796875 L 30.890625 -29.359375 L 19.0625 -29.359375 L 19.0625 -36.203125 C 19.0625 -37.484375 18.882812 -38.46875 18.53125 -39.15625 C 18.175781 -39.84375 17.488281 -40.1875 16.46875 -40.1875 C 14.5625 -40.1875 13.609375 -38.835938 13.609375 -36.140625 L 13.609375 -12.546875 C 13.609375 -11.441406 13.84375 -10.5 14.3125 -9.71875 C 14.78125 -8.945312 15.476562 -8.5625 16.40625 -8.5625 C 17.332031 -8.5625 18.03125 -8.9375 18.5 -9.6875 C 18.96875 -10.445312 19.175781 -11.425781 19.125 -12.625 L 19.0625 -20.796875 L 30.890625 -20.796875 L 30.890625 -12.28125 C 30.890625 -8.300781 29.59375 -5.171875 27 -2.890625 C 24.40625 -0.609375 21.050781 0.53125 16.9375 0.53125 Z M 16.9375 0.53125 "/></g></g></g><g fill="#ffffff" fill-opacity="1"><g transform="translate(191.026167, 266.737783)"><g><path d="M 2.328125 0 L 2.328125 -57.390625 L 13.8125 -57.390625 L 13.8125 -31.875 L 19.390625 -48.625 L 31.421875 -48.625 L 24.109375 -27.5 L 33.40625 0 L 21.0625 0 L 13.8125 -22.921875 L 13.8125 0 Z M 2.328125 0 "/></g></g></g><g fill="#ffffff" fill-opacity="1"><g transform="translate(223.641505, 266.737783)"><g/></g></g><g fill="#ffffff" fill-opacity="1"><g transform="translate(239.181618, 266.737783)"><g/></g></g><g fill="#ffffff" fill-opacity="1"><g transform="translate(254.72173, 266.737783)"><g/></g></g><g fill="#ffffff" fill-opacity="1"><g transform="translate(270.261843, 266.737783)"><g/></g></g><g fill="#ffffff" fill-opacity="1"><g transform="translate(285.801956, 266.737783)"><g/></g></g><g fill="#ffffff" fill-opacity="1"><g transform="translate(301.34328, 266.737783)"><g><path d="M 11.15625 0.53125 C 7.394531 0.53125 4.816406 -0.71875 3.421875 -3.21875 C 2.023438 -5.71875 1.328125 -9.296875 1.328125 -13.953125 C 1.328125 -17.753906 1.820312 -20.671875 2.8125 -22.703125 C 3.8125 -24.742188 5.195312 -26.238281 6.96875 -27.1875 C 8.738281 -28.144531 11.441406 -29.203125 15.078125 -30.359375 L 18.265625 -31.421875 L 18.265625 -36.40625 C 18.265625 -37.6875 18.007812 -38.671875 17.5 -39.359375 C 16.988281 -40.046875 16.378906 -40.390625 15.671875 -40.390625 C 15.054688 -40.390625 14.515625 -40.097656 14.046875 -39.515625 C 13.578125 -38.941406 13.34375 -38.171875 13.34375 -37.203125 L 13.34375 -34.28125 L 2.0625 -34.28125 L 2.0625 -35.875 C 2.0625 -40.65625 3.175781 -44.0625 5.40625 -46.09375 C 7.644531 -48.132812 11.289062 -49.15625 16.34375 -49.15625 C 20.375 -49.15625 23.648438 -48.101562 26.171875 -46 C 28.691406 -43.894531 29.953125 -40.914062 29.953125 -37.0625 L 29.953125 0 L 18.40625 0 L 18.40625 -5.78125 C 17.820312 -3.789062 16.898438 -2.238281 15.640625 -1.125 C 14.378906 -0.0195312 12.882812 0.53125 11.15625 0.53125 Z M 15.734375 -8.5 C 16.628906 -8.5 17.265625 -8.863281 17.640625 -9.59375 C 18.015625 -10.320312 18.203125 -11.21875 18.203125 -12.28125 L 18.203125 -25.84375 C 16.472656 -25.175781 15.195312 -24.332031 14.375 -23.3125 C 13.5625 -22.289062 13.15625 -20.875 13.15625 -19.0625 L 13.15625 -12.8125 C 13.15625 -9.9375 14.015625 -8.5 15.734375 -8.5 Z M 15.734375 -8.5 "/></g></g></g><g fill="#ffffff" fill-opacity="1"><g transform="translate(333.419675, 266.737783)"><g><path d="M 11.6875 0.53125 C 8.0625 0.53125 5.570312 -0.550781 4.21875 -2.71875 C 2.863281 -4.894531 2.1875 -8.128906 2.1875 -12.421875 L 2.1875 -48.625 L 13.875 -48.625 L 13.875 -14.75 C 13.875 -14.4375 13.875 -13.601562 13.875 -12.25 C 13.875 -10.90625 14.082031 -9.953125 14.5 -9.390625 C 14.925781 -8.835938 15.582031 -8.5625 16.46875 -8.5625 C 17.664062 -8.5625 18.421875 -9.0625 18.734375 -10.0625 C 19.046875 -11.0625 19.203125 -12.488281 19.203125 -14.34375 L 19.203125 -14.75 L 19.265625 -48.625 L 30.8125 -48.625 L 30.8125 0 L 19.203125 0 L 19.203125 -5.1875 C 18.398438 -3.144531 17.46875 -1.679688 16.40625 -0.796875 C 15.34375 0.0859375 13.769531 0.53125 11.6875 0.53125 Z M 11.6875 0.53125 "/></g></g></g><g fill="#ffffff" fill-opacity="1"><g transform="translate(366.55864, 266.737783)"><g><path d="M 2.328125 0 L 2.328125 -57.390625 L 14.140625 -57.390625 L 14.140625 0 Z M 2.328125 0 "/></g></g></g><g fill="#ffffff" fill-opacity="1"><g transform="translate(383.028502, 266.737783)"><g><path d="M 12.359375 0.53125 C 9.296875 0.53125 7.1875 -0.109375 6.03125 -1.390625 C 4.882812 -2.679688 4.3125 -4.742188 4.3125 -7.578125 L 4.3125 -37.921875 L 1.0625 -37.921875 L 1.0625 -46.765625 L 4.3125 -46.765625 L 4.3125 -57.0625 L 15.609375 -57.0625 L 15.609375 -46.765625 L 18.9375 -46.765625 L 18.9375 -37.921875 L 15.609375 -37.921875 L 15.609375 -10.625 C 15.609375 -9.78125 15.671875 -9.160156 15.796875 -8.765625 C 15.929688 -8.367188 16.289062 -8.171875 16.875 -8.171875 C 17.3125 -8.171875 17.726562 -8.191406 18.125 -8.234375 C 18.53125 -8.273438 18.800781 -8.296875 18.9375 -8.296875 L 18.9375 -0.328125 C 18.269531 -0.148438 17.300781 0.0351562 16.03125 0.234375 C 14.769531 0.429688 13.546875 0.53125 12.359375 0.53125 Z M 12.359375 0.53125 "/></g></g></g><path fill="#ffffff" d="M 285.871094 217.40625 C 285.996094 217.273438 286.140625 217.136719 286.167969 217.101562 C 286.609375 216.558594 286.972656 215.945312 287.246094 215.304688 C 287.996094 213.554688 288.117188 211.765625 287.875 209.890625 C 287.800781 209.324219 287.703125 208.761719 287.617188 208.199219 C 287.609375 208.128906 287.59375 207.730469 287.507812 207.703125 C 287.445312 207.679688 287.257812 208.210938 287.242188 208.253906 C 286.972656 208.90625 286.683594 209.558594 286.367188 210.191406 C 285.492188 211.957031 284.648438 213.792969 284.53125 215.789062 C 284.492188 216.46875 284.523438 217.40625 285.042969 217.941406 C 284.507812 221.472656 285.179688 224.976562 285.34375 228.519531 C 285.273438 228.191406 285.191406 227.867188 285.101562 227.546875 C 284.304688 224.703125 282.761719 222.316406 280.5625 220.367188 C 280.089844 219.945312 279.601562 219.539062 279.105469 219.144531 C 279.046875 219.097656 278.710938 218.765625 278.632812 218.816406 C 278.519531 218.894531 278.6875 219.550781 278.707031 219.660156 C 278.84375 220.582031 279.015625 221.496094 279.160156 222.417969 C 279.617188 225.371094 281.171875 227.9375 283.191406 230.082031 C 283.699219 230.617188 284.503906 231.605469 285.289062 231.871094 C 285.007812 235.050781 284.042969 238.046875 282.589844 240.871094 C 282.683594 240.453125 282.769531 240.035156 282.847656 239.617188 C 283.175781 237.847656 283.527344 235.503906 282.839844 233.71875 C 282.949219 233.65625 283.050781 233.570312 283.136719 233.464844 C 283.523438 233 283.460938 232.308594 282.992188 231.921875 C 282.527344 231.535156 281.832031 231.601562 281.449219 232.066406 C 281.0625 232.535156 281.125 233.226562 281.59375 233.613281 C 281.75 233.742188 281.929688 233.820312 282.113281 233.851562 C 282.835938 235.527344 282.453125 237.789062 282.136719 239.484375 C 282.09375 239.710938 282.050781 239.941406 282.003906 240.167969 C 282.140625 237.894531 281.886719 235.542969 280.96875 233.453125 C 280.84375 233.167969 280.210938 231.453125 279.757812 231.464844 C 279.636719 231.46875 279.617188 232.082031 279.605469 232.167969 C 279.488281 232.949219 279.289062 233.726562 279.078125 234.488281 C 278.359375 237.128906 278.386719 239.542969 279.394531 242.136719 C 279.6875 242.886719 280.308594 243.496094 280.613281 244.21875 C 279.753906 245.546875 278.867188 246.851562 278.003906 248.175781 C 277.996094 247.949219 277.984375 247.722656 277.976562 247.496094 C 277.910156 246.136719 277.679688 244.8125 277.183594 243.542969 C 277.171875 243.511719 277.15625 243.484375 277.140625 243.460938 C 277.164062 243.433594 277.191406 243.40625 277.214844 243.378906 C 277.597656 242.914062 277.535156 242.21875 277.066406 241.835938 C 276.601562 241.449219 275.90625 241.515625 275.523438 241.980469 C 275.136719 242.445312 275.203125 243.140625 275.667969 243.523438 C 275.910156 243.726562 276.210938 243.804688 276.5 243.769531 C 276.503906 243.78125 276.507812 243.792969 276.511719 243.804688 C 276.976562 245 277.195312 246.25 277.253906 247.53125 C 277.277344 247.976562 277.292969 248.421875 277.296875 248.871094 C 277.300781 248.9375 277.261719 249.027344 277.238281 249.113281 C 277.203125 249.234375 277.183594 249.351562 277.183594 249.4375 L 277.183594 249.449219 C 276.378906 250.726562 275.617188 252.027344 274.941406 253.386719 C 274.519531 254.238281 275.171875 254.546875 275.585938 253.707031 C 276.183594 252.507812 276.847656 251.351562 277.550781 250.222656 C 277.789062 250.117188 278.046875 250.015625 278.070312 250.007812 C 279.15625 249.613281 280.359375 249.421875 281.503906 249.304688 C 284.203125 249.035156 286.304688 248.132812 287.855469 245.824219 C 288.089844 245.472656 289.0625 244.203125 288.902344 243.710938 C 288.890625 243.675781 288.277344 243.941406 288.230469 243.957031 C 287.460938 244.238281 286.695312 244.527344 285.933594 244.835938 C 284.195312 245.546875 282.507812 246.324219 280.8125 247.136719 C 280.132812 247.460938 279.488281 247.746094 278.898438 248.117188 C 279.914062 246.578125 280.957031 245.054688 281.929688 243.484375 C 282.996094 241.773438 283.898438 239.992188 284.582031 238.144531 C 284.796875 238.15625 285.160156 238.226562 285.300781 238.222656 C 285.980469 238.1875 286.652344 238.070312 287.308594 237.894531 C 290.089844 237.152344 292.433594 235.214844 294.019531 232.84375 C 294.535156 232.074219 295.019531 231.269531 295.414062 230.429688 C 295.46875 230.316406 295.773438 229.777344 295.625 229.644531 C 295.550781 229.578125 295.023438 230.066406 294.960938 230.109375 C 294.273438 230.617188 293.507812 230.980469 292.765625 231.394531 C 290.429688 232.691406 288.039062 234.089844 286.039062 235.902344 C 286.273438 235.476562 286.507812 235.054688 286.753906 234.640625 C 287.875 232.742188 289.042969 230.957031 290.773438 229.566406 C 290.777344 229.5625 290.785156 229.558594 290.789062 229.550781 C 291.25 229.84375 291.867188 229.753906 292.222656 229.324219 C 292.609375 228.859375 292.542969 228.164062 292.074219 227.777344 C 291.609375 227.394531 290.917969 227.457031 290.53125 227.925781 C 290.277344 228.234375 290.21875 228.640625 290.339844 228.988281 C 290.335938 228.996094 290.328125 229 290.320312 229.003906 C 288.523438 230.449219 287.300781 232.300781 286.132812 234.273438 C 285.875 234.710938 285.625 235.15625 285.378906 235.605469 C 285.804688 233.929688 286.054688 232.203125 286.089844 230.421875 C 286.121094 229.027344 286.019531 227.640625 285.898438 226.253906 C 285.933594 226.167969 285.996094 225.953125 286.050781 225.871094 C 286.222656 225.609375 286.414062 225.351562 286.621094 225.113281 C 287.203125 224.429688 287.886719 223.832031 288.566406 223.246094 C 290.800781 221.328125 292.515625 219.496094 293.519531 216.648438 C 293.746094 216.007812 293.945312 215.347656 294.054688 214.675781 C 294.070312 214.59375 294.195312 214.082031 294.113281 214.011719 C 294.074219 213.984375 293.488281 214.566406 293.445312 214.605469 C 292.722656 215.226562 291.960938 215.804688 291.207031 216.390625 C 289.472656 217.738281 288.425781 219.488281 287.347656 221.367188 C 287.042969 221.898438 286.753906 222.390625 286.492188 222.871094 C 286.59375 222.324219 286.714844 221.78125 286.859375 221.242188 C 287.46875 219.015625 288.300781 216.871094 289.5625 214.929688 C 289.964844 215.039062 290.414062 214.914062 290.695312 214.570312 C 291.082031 214.105469 291.015625 213.410156 290.550781 213.027344 C 290.082031 212.640625 289.390625 212.703125 289.003906 213.171875 C 288.675781 213.566406 288.671875 214.128906 288.964844 214.523438 C 287.660156 216.527344 286.796875 218.746094 286.164062 221.054688 C 285.949219 221.84375 285.789062 222.648438 285.65625 223.457031 C 285.507812 221.441406 285.46875 219.429688 285.871094 217.40625 Z M 285.871094 217.40625 " fill-opacity="1" fill-rule="evenodd"/><g clip-path="url(#2b4dcd4cc6)"><path fill="#ffffff" d="M 278.355469 252.0625 L 273.585938 250.324219 L 272.269531 253.597656 L 253.308594 210.933594 C 252.464844 209.039062 252.007812 207.527344 251.941406 206.402344 C 251.941406 204.789062 252.605469 203.769531 253.941406 203.347656 C 255.34375 202.996094 257.347656 202.820312 259.941406 202.820312 L 259.941406 200.714844 L 232.027344 200.714844 L 232.027344 202.820312 C 234.484375 202.820312 236.382812 203.382812 237.71875 204.507812 C 238.910156 205.5625 240.035156 207.105469 241.085938 209.144531 L 269.214844 271.609375 L 270.582031 271.609375 Z M 289.910156 208.480469 L 294.949219 210.324219 C 296.132812 207.351562 297.355469 205.375 298.605469 204.402344 C 300.007812 203.347656 301.730469 202.820312 303.765625 202.820312 L 303.765625 200.714844 L 282.171875 200.714844 L 282.171875 202.820312 C 287.367188 202.820312 289.964844 204.402344 289.964844 207.5625 C 289.964844 207.855469 289.945312 208.160156 289.910156 208.480469 Z M 289.910156 208.480469 " fill-opacity="1" fill-rule="nonzero"/></g></svg>