<svg xmlns="http://www.w3.org/2000/svg" xmlns:xlink="http://www.w3.org/1999/xlink" width="641" zoomAndPan="magnify" viewBox="0 0 480.75 480.749983" height="641" preserveAspectRatio="xMidYMid meet" version="1.0"><defs><g/><clipPath id="dd10c14b10"><path d="M 232.019531 200.667969 L 303.980469 200.667969 L 303.980469 271.878906 L 232.019531 271.878906 Z M 232.019531 200.667969 " clip-rule="nonzero"/></clipPath></defs><path fill="#000000" d="M 286.046875 217.453125 C 286.175781 217.316406 286.316406 217.183594 286.34375 217.148438 C 286.785156 216.605469 287.152344 215.988281 287.425781 215.347656 C 288.179688 213.589844 288.300781 211.796875 288.054688 209.914062 C 287.980469 209.347656 287.886719 208.785156 287.800781 208.21875 C 287.789062 208.152344 287.777344 207.75 287.691406 207.722656 C 287.628906 207.699219 287.4375 208.234375 287.421875 208.273438 C 287.152344 208.929688 286.863281 209.585938 286.546875 210.21875 C 285.664062 211.988281 284.820312 213.832031 284.703125 215.832031 C 284.664062 216.511719 284.691406 217.453125 285.21875 217.988281 C 284.679688 221.53125 285.355469 225.046875 285.515625 228.597656 C 285.445312 228.269531 285.363281 227.945312 285.273438 227.621094 C 284.476562 224.769531 282.929688 222.375 280.722656 220.421875 C 280.246094 220 279.757812 219.589844 279.257812 219.195312 C 279.203125 219.148438 278.863281 218.816406 278.785156 218.867188 C 278.671875 218.945312 278.839844 219.605469 278.859375 219.710938 C 278.996094 220.636719 279.167969 221.554688 279.3125 222.476562 C 279.769531 225.441406 281.332031 228.011719 283.359375 230.164062 C 283.867188 230.703125 284.675781 231.691406 285.464844 231.960938 C 285.183594 235.144531 284.210938 238.152344 282.753906 240.984375 C 282.847656 240.566406 282.933594 240.144531 283.011719 239.726562 C 283.339844 237.953125 283.695312 235.601562 283.003906 233.8125 C 283.117188 233.746094 283.21875 233.664062 283.304688 233.558594 C 283.691406 233.089844 283.628906 232.394531 283.160156 232.007812 C 282.691406 231.621094 281.996094 231.6875 281.609375 232.15625 C 281.222656 232.625 281.285156 233.316406 281.753906 233.703125 C 281.910156 233.832031 282.09375 233.914062 282.277344 233.941406 C 283.003906 235.625 282.617188 237.894531 282.300781 239.59375 C 282.257812 239.820312 282.214844 240.050781 282.167969 240.277344 C 282.304688 238 282.046875 235.640625 281.128906 233.542969 C 281.003906 233.257812 280.371094 231.539062 279.910156 231.554688 C 279.792969 231.554688 279.773438 232.171875 279.761719 232.253906 C 279.644531 233.042969 279.441406 233.816406 279.234375 234.585938 C 278.507812 237.230469 278.539062 239.652344 279.550781 242.253906 C 279.84375 243.003906 280.464844 243.617188 280.769531 244.339844 C 279.910156 245.671875 279.019531 246.984375 278.152344 248.308594 C 278.144531 248.082031 278.136719 247.855469 278.125 247.625 C 278.0625 246.265625 277.828125 244.9375 277.332031 243.664062 C 277.320312 243.632812 277.304688 243.605469 277.285156 243.582031 C 277.3125 243.554688 277.335938 243.527344 277.359375 243.5 C 277.75 243.03125 277.683594 242.335938 277.214844 241.949219 C 276.746094 241.5625 276.050781 241.628906 275.664062 242.097656 C 275.277344 242.5625 275.34375 243.257812 275.8125 243.644531 C 276.054688 243.847656 276.355469 243.925781 276.648438 243.890625 C 276.648438 243.902344 276.652344 243.914062 276.660156 243.925781 C 277.125 245.125 277.34375 246.375 277.402344 247.660156 C 277.425781 248.109375 277.441406 248.558594 277.445312 249.003906 C 277.449219 249.070312 277.410156 249.164062 277.382812 249.25 C 277.351562 249.371094 277.328125 249.488281 277.332031 249.574219 L 277.332031 249.585938 C 276.527344 250.863281 275.757812 252.171875 275.082031 253.535156 C 274.660156 254.390625 275.3125 254.695312 275.730469 253.855469 C 276.328125 252.652344 276.996094 251.496094 277.699219 250.359375 C 277.9375 250.253906 278.199219 250.15625 278.21875 250.148438 C 279.3125 249.75 280.515625 249.558594 281.667969 249.441406 C 284.371094 249.171875 286.480469 248.265625 288.039062 245.953125 C 288.273438 245.597656 289.246094 244.328125 289.085938 243.832031 C 289.078125 243.796875 288.460938 244.0625 288.414062 244.078125 C 287.640625 244.359375 286.875 244.652344 286.109375 244.960938 C 284.363281 245.671875 282.671875 246.453125 280.972656 247.265625 C 280.292969 247.59375 279.640625 247.875 279.050781 248.253906 C 280.070312 246.707031 281.113281 245.179688 282.09375 243.605469 C 283.164062 241.886719 284.066406 240.101562 284.753906 238.25 C 284.96875 238.261719 285.332031 238.332031 285.476562 238.328125 C 286.15625 238.292969 286.828125 238.175781 287.488281 238 C 290.28125 237.253906 292.632812 235.3125 294.21875 232.9375 C 294.738281 232.160156 295.222656 231.355469 295.621094 230.511719 C 295.675781 230.398438 295.984375 229.859375 295.832031 229.726562 C 295.757812 229.660156 295.230469 230.148438 295.167969 230.195312 C 294.480469 230.699219 293.710938 231.066406 292.964844 231.480469 C 290.621094 232.78125 288.222656 234.183594 286.214844 236 C 286.449219 235.574219 286.6875 235.152344 286.933594 234.734375 C 288.058594 232.832031 289.230469 231.039062 290.964844 229.648438 C 290.972656 229.644531 290.976562 229.636719 290.980469 229.632812 C 291.441406 229.925781 292.0625 229.835938 292.417969 229.40625 C 292.804688 228.9375 292.738281 228.242188 292.269531 227.855469 C 291.804688 227.46875 291.109375 227.535156 290.722656 228.003906 C 290.464844 228.308594 290.40625 228.71875 290.53125 229.070312 C 290.523438 229.074219 290.519531 229.078125 290.511719 229.082031 C 288.707031 230.53125 287.480469 232.386719 286.3125 234.367188 C 286.050781 234.808594 285.800781 235.253906 285.554688 235.703125 C 285.980469 234.023438 286.230469 232.289062 286.269531 230.503906 C 286.296875 229.105469 286.195312 227.714844 286.074219 226.328125 C 286.109375 226.242188 286.171875 226.023438 286.226562 225.941406 C 286.402344 225.679688 286.589844 225.421875 286.796875 225.179688 C 287.382812 224.496094 288.070312 223.898438 288.753906 223.308594 C 290.992188 221.386719 292.714844 219.550781 293.71875 216.695312 C 293.949219 216.050781 294.148438 215.390625 294.257812 214.714844 C 294.269531 214.632812 294.398438 214.121094 294.316406 214.050781 C 294.277344 214.019531 293.6875 214.605469 293.644531 214.644531 C 292.921875 215.265625 292.15625 215.847656 291.402344 216.433594 C 289.660156 217.785156 288.609375 219.542969 287.527344 221.425781 C 287.222656 221.957031 286.933594 222.449219 286.667969 222.933594 C 286.773438 222.386719 286.890625 221.839844 287.039062 221.300781 C 287.652344 219.066406 288.484375 216.914062 289.75 214.96875 C 290.152344 215.078125 290.601562 214.953125 290.886719 214.609375 C 291.273438 214.140625 291.207031 213.449219 290.738281 213.058594 C 290.273438 212.671875 289.578125 212.738281 289.191406 213.207031 C 288.859375 213.605469 288.859375 214.164062 289.152344 214.5625 C 287.84375 216.574219 286.972656 218.796875 286.34375 221.109375 C 286.125 221.902344 285.964844 222.710938 285.832031 223.519531 C 285.683594 221.5 285.640625 219.480469 286.046875 217.453125 Z M 286.046875 217.453125 " fill-opacity="1" fill-rule="evenodd"/><g clip-path="url(#dd10c14b10)"><path fill="#000000" d="M 278.507812 252.207031 L 273.722656 250.460938 L 272.402344 253.746094 L 253.378906 210.960938 C 252.53125 209.0625 252.074219 207.546875 252.003906 206.417969 C 252.003906 204.800781 252.671875 203.777344 254.011719 203.355469 C 255.421875 203.003906 257.429688 202.828125 260.035156 202.828125 L 260.035156 200.714844 L 232.027344 200.714844 L 232.027344 202.828125 C 234.492188 202.828125 236.398438 203.390625 237.738281 204.519531 C 238.933594 205.574219 240.058594 207.125 241.117188 209.167969 L 269.335938 271.808594 L 270.710938 271.808594 Z M 290.101562 208.503906 L 295.15625 210.351562 C 296.34375 207.371094 297.566406 205.390625 298.824219 204.414062 C 300.230469 203.355469 301.957031 202.828125 304 202.828125 L 304 200.714844 L 282.335938 200.714844 L 282.335938 202.828125 C 287.550781 202.828125 290.15625 204.414062 290.15625 207.582031 C 290.15625 207.875 290.136719 208.183594 290.101562 208.503906 Z M 290.101562 208.503906 " fill-opacity="1" fill-rule="nonzero"/></g><g fill="#000000" fill-opacity="1"><g transform="translate(77.221506, 266.049751)"><g><path d="M 7.4375 0 L 7.4375 -46.09375 L 0.671875 -46.09375 L 0.671875 -57.046875 L 25.640625 -57.046875 L 25.640625 -46.09375 L 18.859375 -46.09375 L 18.859375 0 Z M 7.4375 0 "/></g></g></g><g fill="#000000" fill-opacity="1"><g transform="translate(103.51485, 266.049751)"><g><path d="M 2.328125 -48.609375 L 13.953125 -48.609375 L 13.953125 -43.234375 C 14.523438 -45.140625 15.53125 -46.609375 16.96875 -47.640625 C 18.40625 -48.679688 20.1875 -49.203125 22.3125 -49.203125 L 22.3125 -39.515625 C 20.675781 -39.515625 18.875 -39.28125 16.90625 -38.8125 C 14.9375 -38.351562 13.953125 -37.8125 13.953125 -37.1875 L 13.953125 0 L 2.328125 0 Z M 2.328125 -48.609375 "/></g></g></g><g fill="#000000" fill-opacity="1"><g transform="translate(126.355526, 266.049751)"><g><path d="M 11.15625 0.53125 C 7.394531 0.53125 4.816406 -0.71875 3.421875 -3.21875 C 2.023438 -5.71875 1.328125 -9.296875 1.328125 -13.953125 C 1.328125 -17.753906 1.820312 -20.671875 2.8125 -22.703125 C 3.8125 -24.742188 5.195312 -26.238281 6.96875 -27.1875 C 8.738281 -28.144531 11.441406 -29.195312 15.078125 -30.34375 L 18.265625 -31.40625 L 18.265625 -36.390625 C 18.265625 -37.671875 18.007812 -38.65625 17.5 -39.34375 C 16.988281 -40.03125 16.378906 -40.375 15.671875 -40.375 C 15.054688 -40.375 14.515625 -40.085938 14.046875 -39.515625 C 13.578125 -38.941406 13.34375 -38.164062 13.34375 -37.1875 L 13.34375 -34.265625 L 2.0625 -34.265625 L 2.0625 -35.859375 C 2.0625 -40.640625 3.175781 -44.046875 5.40625 -46.078125 C 7.644531 -48.117188 11.289062 -49.140625 16.34375 -49.140625 C 20.363281 -49.140625 23.632812 -48.085938 26.15625 -45.984375 C 28.6875 -43.878906 29.953125 -40.90625 29.953125 -37.0625 L 29.953125 0 L 18.390625 0 L 18.390625 -5.78125 C 17.816406 -3.789062 16.898438 -2.238281 15.640625 -1.125 C 14.378906 -0.0195312 12.882812 0.53125 11.15625 0.53125 Z M 15.734375 -8.5 C 16.617188 -8.5 17.25 -8.863281 17.625 -9.59375 C 18.007812 -10.320312 18.203125 -11.21875 18.203125 -12.28125 L 18.203125 -25.828125 C 16.472656 -25.171875 15.195312 -24.332031 14.375 -23.3125 C 13.5625 -22.289062 13.15625 -20.875 13.15625 -19.0625 L 13.15625 -12.8125 C 13.15625 -9.9375 14.015625 -8.5 15.734375 -8.5 Z M 15.734375 -8.5 "/></g></g></g><g fill="#000000" fill-opacity="1"><g transform="translate(158.425434, 266.049751)"><g><path d="M 16.9375 0.53125 C 11.625 0.53125 7.789062 -0.816406 5.4375 -3.515625 C 3.09375 -6.222656 1.921875 -10.363281 1.921875 -15.9375 L 1.921875 -30.953125 C 1.921875 -35.148438 2.375 -38.566406 3.28125 -41.203125 C 4.195312 -43.835938 5.726562 -45.816406 7.875 -47.140625 C 10.019531 -48.472656 12.992188 -49.140625 16.796875 -49.140625 C 20.960938 -49.140625 24.347656 -48.054688 26.953125 -45.890625 C 29.566406 -43.722656 30.875 -40.691406 30.875 -36.796875 L 30.875 -29.359375 L 19.0625 -29.359375 L 19.0625 -36.1875 C 19.0625 -37.476562 18.882812 -38.460938 18.53125 -39.140625 C 18.175781 -39.828125 17.488281 -40.171875 16.46875 -40.171875 C 14.5625 -40.171875 13.609375 -38.820312 13.609375 -36.125 L 13.609375 -12.546875 C 13.609375 -11.441406 13.84375 -10.5 14.3125 -9.71875 C 14.78125 -8.945312 15.476562 -8.5625 16.40625 -8.5625 C 17.332031 -8.5625 18.023438 -8.9375 18.484375 -9.6875 C 18.953125 -10.445312 19.164062 -11.425781 19.125 -12.625 L 19.0625 -20.78125 L 30.875 -20.78125 L 30.875 -12.28125 C 30.875 -8.300781 29.578125 -5.171875 26.984375 -2.890625 C 24.398438 -0.609375 21.050781 0.53125 16.9375 0.53125 Z M 16.9375 0.53125 "/></g></g></g><g fill="#000000" fill-opacity="1"><g transform="translate(191.026521, 266.049751)"><g><path d="M 2.328125 0 L 2.328125 -57.375 L 13.8125 -57.375 L 13.8125 -31.875 L 19.390625 -48.609375 L 31.40625 -48.609375 L 24.109375 -27.5 L 33.40625 0 L 21.046875 0 L 13.8125 -22.90625 L 13.8125 0 Z M 2.328125 0 "/></g></g></g><g fill="#000000" fill-opacity="1"><g transform="translate(223.638138, 266.049751)"><g/></g></g><g fill="#000000" fill-opacity="1"><g transform="translate(239.175113, 266.049751)"><g/></g></g><g fill="#000000" fill-opacity="1"><g transform="translate(254.712089, 266.049751)"><g/></g></g><g fill="#000000" fill-opacity="1"><g transform="translate(270.249064, 266.049751)"><g/></g></g><g fill="#000000" fill-opacity="1"><g transform="translate(285.786039, 266.049751)"><g/></g></g><g fill="#000000" fill-opacity="1"><g transform="translate(301.339571, 266.049751)"><g><path d="M 11.15625 0.53125 C 7.394531 0.53125 4.816406 -0.71875 3.421875 -3.21875 C 2.023438 -5.71875 1.328125 -9.296875 1.328125 -13.953125 C 1.328125 -17.753906 1.820312 -20.671875 2.8125 -22.703125 C 3.8125 -24.742188 5.195312 -26.238281 6.96875 -27.1875 C 8.738281 -28.144531 11.441406 -29.195312 15.078125 -30.34375 L 18.265625 -31.40625 L 18.265625 -36.390625 C 18.265625 -37.671875 18.007812 -38.65625 17.5 -39.34375 C 16.988281 -40.03125 16.378906 -40.375 15.671875 -40.375 C 15.054688 -40.375 14.515625 -40.085938 14.046875 -39.515625 C 13.578125 -38.941406 13.34375 -38.164062 13.34375 -37.1875 L 13.34375 -34.265625 L 2.0625 -34.265625 L 2.0625 -35.859375 C 2.0625 -40.640625 3.175781 -44.046875 5.40625 -46.078125 C 7.644531 -48.117188 11.289062 -49.140625 16.34375 -49.140625 C 20.363281 -49.140625 23.632812 -48.085938 26.15625 -45.984375 C 28.6875 -43.878906 29.953125 -40.90625 29.953125 -37.0625 L 29.953125 0 L 18.390625 0 L 18.390625 -5.78125 C 17.816406 -3.789062 16.898438 -2.238281 15.640625 -1.125 C 14.378906 -0.0195312 12.882812 0.53125 11.15625 0.53125 Z M 15.734375 -8.5 C 16.617188 -8.5 17.25 -8.863281 17.625 -9.59375 C 18.007812 -10.320312 18.203125 -11.21875 18.203125 -12.28125 L 18.203125 -25.828125 C 16.472656 -25.171875 15.195312 -24.332031 14.375 -23.3125 C 13.5625 -22.289062 13.15625 -20.875 13.15625 -19.0625 L 13.15625 -12.8125 C 13.15625 -9.9375 14.015625 -8.5 15.734375 -8.5 Z M 15.734375 -8.5 "/></g></g></g><g fill="#000000" fill-opacity="1"><g transform="translate(333.409479, 266.049751)"><g><path d="M 11.6875 0.53125 C 8.0625 0.53125 5.570312 -0.550781 4.21875 -2.71875 C 2.863281 -4.894531 2.1875 -8.128906 2.1875 -12.421875 L 2.1875 -48.609375 L 13.875 -48.609375 L 13.875 -14.75 C 13.875 -14.4375 13.875 -13.601562 13.875 -12.25 C 13.875 -10.90625 14.082031 -9.953125 14.5 -9.390625 C 14.925781 -8.835938 15.582031 -8.5625 16.46875 -8.5625 C 17.664062 -8.5625 18.414062 -9.0625 18.71875 -10.0625 C 19.03125 -11.0625 19.1875 -12.488281 19.1875 -14.34375 L 19.1875 -14.75 L 19.265625 -48.609375 L 30.8125 -48.609375 L 30.8125 0 L 19.1875 0 L 19.1875 -5.1875 C 18.394531 -3.144531 17.46875 -1.679688 16.40625 -0.796875 C 15.34375 0.0859375 13.769531 0.53125 11.6875 0.53125 Z M 11.6875 0.53125 "/></g></g></g><g fill="#000000" fill-opacity="1"><g transform="translate(366.541744, 266.049751)"><g><path d="M 2.328125 0 L 2.328125 -57.375 L 14.140625 -57.375 L 14.140625 0 Z M 2.328125 0 "/></g></g></g><g fill="#000000" fill-opacity="1"><g transform="translate(383.008277, 266.049751)"><g><path d="M 12.359375 0.53125 C 9.296875 0.53125 7.1875 -0.109375 6.03125 -1.390625 C 4.882812 -2.679688 4.3125 -4.742188 4.3125 -7.578125 L 4.3125 -37.921875 L 1.0625 -37.921875 L 1.0625 -46.75 L 4.3125 -46.75 L 4.3125 -57.046875 L 15.609375 -57.046875 L 15.609375 -46.75 L 18.921875 -46.75 L 18.921875 -37.921875 L 15.609375 -37.921875 L 15.609375 -10.625 C 15.609375 -9.78125 15.671875 -9.160156 15.796875 -8.765625 C 15.929688 -8.367188 16.289062 -8.171875 16.875 -8.171875 C 17.3125 -8.171875 17.726562 -8.191406 18.125 -8.234375 C 18.53125 -8.273438 18.796875 -8.296875 18.921875 -8.296875 L 18.921875 -0.328125 C 18.265625 -0.148438 17.300781 0.0351562 16.03125 0.234375 C 14.769531 0.429688 13.546875 0.53125 12.359375 0.53125 Z M 12.359375 0.53125 "/></g></g></g></svg>